<svg id="Layer_1" data-name="Layer 1" xmlns="http://www.w3.org/2000/svg" viewBox="0 0 23.16 22"><defs><style>.cls-1{fill:#b6ce36;}</style></defs><title>green-outline-star-01</title><path class="cls-1" d="M22.81,9.42a1.12,1.12,0,0,0-.66-1.92l-6.38-.6a1.1,1.1,0,0,1-.91-0.68L12.57,0.69a1.09,1.09,0,0,0-2,0L8.28,6.22a1.08,1.08,0,0,1-.91.68L1,7.5A1.1,1.1,0,0,0,.37,9.42l4.81,4.22a1.09,1.09,0,0,1,.35,1.08L4.08,20.64A1.1,1.1,0,0,0,5.7,21.84L11,18.72a1.11,1.11,0,0,1,1.11,0l5.32,3.12a1.1,1.1,0,0,0,1.63-1.21l-1.43-5.92A1.09,1.09,0,0,1,18,13.64Zm-7.22,3.23a0.68,0.68,0,0,0-.22.67L16.26,17a0.69,0.69,0,0,1-1,.75l-3.32-1.95a0.69,0.69,0,0,0-.7,0L7.91,17.77a0.69,0.69,0,0,1-1-.75l0.9-3.69a0.68,0.68,0,0,0-.22-0.67L4.58,10A0.69,0.69,0,0,1,5,8.82l4-.38A0.67,0.67,0,0,0,9.52,8l1.41-3.45a0.68,0.68,0,0,1,1.27,0L13.62,8a0.69,0.69,0,0,0,.57.42l4,0.38a0.7,0.7,0,0,1,.41,1.2Z"/></svg>